# xmcd
#
# Track frame offsets: 
#        150
#        24144
#        49319
#        76557
#        102054
#        133010
#        167858
#
# Disc length: 2438 seconds
#
# Revision: 1
# Processed by: cddbd v1.5.2PL0 Copyright (c) Steve Scherf et al.
# Submitted via: ExactAudioCopyFreeDBPlugin 1.0
#
DISCID=48098407
DTITLE=The Isley Brothers - The Heat is On
DYEAR=1900
DGENRE=
TTITLE0=Fight the Power (Parts 1 and 2)
TTITLE1=The Heat is On (Parts 1 and 2)
TTITLE2=Hope You Feel Better Love (Parts 1 and 2)
TTITLE3=For the Love of You (Parts 1 and 2)
TTITLE4=Sensuality (Parts 1 and 2)
TTITLE5=Make Me Say it Again Girl (Parts 1 and 2)
TTITLE6=Fight the Power (Parts 1) (clean radio edit)
EXTD=
EXTT0=
EXTT1=
EXTT2=
EXTT3=
EXTT4=
EXTT5=
EXTT6=
PLAYORDER=
